<?xml version="1.0" encoding="UTF-8"?>
<svg width="560px" height="621px" viewBox="0 0 560 621" version="1.1" xmlns="http://www.w3.org/2000/svg" xmlns:xlink="http://www.w3.org/1999/xlink">
    <title>Tip out Logo DARK</title>
    <defs>
        <linearGradient x1="69.701296%" y1="50%" x2="36.0672738%" y2="50%" id="linearGradient-1">
            <stop stop-color="#148E56" offset="0%"></stop>
            <stop stop-color="#4BCD3E" offset="100%"></stop>
        </linearGradient>
    </defs>
    <g id="Slides" stroke="none" stroke-width="1" fill="none" fill-rule="evenodd">
        <g id="---Dark-Background" transform="translate(-232.000000, -202.000000)">
            <g id="Tip-out-Logo-DARK" transform="translate(232.000000, 202.000000)">
                <g id="Fast-Coin" transform="translate(64.000000, 170.000000)">
                    <path d="M129.175264,0 L358.525145,0 C287.405208,19.668623 251.84524,62.5019564 251.84524,128.5 C251.84524,194.498044 290.900594,237.331377 369.011304,257 L175.787864,257 C165.445167,256.082317 160.273819,250.410095 160.273819,239.983334 C160.273819,229.556572 165.445167,224.241032 175.787864,224.036714 L235.275282,224.036714 C243.872611,222.390572 248.171275,214.98174 248.171275,201.810217 C248.171275,188.638694 243.872611,181.456407 235.275282,180.263355 L72.4422599,180.263355 C61.7803173,178.504 56.449346,173.190451 56.449346,164.322705 C56.449346,155.45496 61.7803173,150.494146 72.4422599,149.440262 L175.787864,149.440262 C183.480478,145.792531 187.326786,138.812443 187.326786,128.5 C187.326786,118.187557 183.480478,111.170735 175.787864,107.449536 L15.7459905,107.449536 C5.2486635,106.089788 0,100.41023 0,90.4108603 C0,80.4114911 5.2486635,74.8779413 15.7459905,73.8102112 L235.275282,73.8102112 C244.5059,70.441858 249.121209,63.8234007 249.121209,53.9548392 C249.121209,44.0862777 244.5059,37.6092798 235.275282,34.5238454 L129.175264,34.5238454 C120.465719,31.389625 116.110946,25.3576371 116.110946,16.4278818 C116.110946,7.49812645 120.465719,2.02216586 129.175264,0 Z" id="Path-9" fill="url(#linearGradient-1)"></path>
                    <path d="M380.078295,13.3165013 C443.872891,13.3165013 495.58863,64.9882303 495.58863,128.728538 C495.58863,192.468846 443.872891,244.140575 380.078295,244.140575 C316.283698,244.140575 264.56796,192.468846 264.56796,128.728538 C264.56796,64.9882303 316.283698,13.3165013 380.078295,13.3165013 Z M386.926969,39.4924272 L376.289568,39.4924272 L376.287615,56.0655145 L375.662071,56.0987783 C368.258477,56.6180676 361.553616,58.1759355 355.547487,60.7723819 C348.039827,64.0179399 342.154851,68.5842748 337.892561,74.4713865 C333.63027,80.3584982 331.499125,87.2937352 331.499125,95.2770973 L331.499125,95.4068579 C331.499125,105.600268 334.810053,113.758704 341.431908,119.882166 C348.053764,126.005627 357.824976,130.498328 370.745545,133.360268 L376.287615,134.583317 L376.287615,174.467168 L376.139009,174.45179 C372.313828,174.075782 369.007144,173.323766 366.218958,172.195742 C362.036679,170.503705 358.818151,168.186811 356.563375,165.245057 C354.308599,162.303303 352.838969,158.994667 352.154483,155.319149 L351.956261,154.226998 L328.872682,154.226998 L328.971793,155.642005 C329.56646,163.74277 332.192128,170.697574 336.848797,176.506417 C341.505467,182.315261 347.695261,186.752093 355.418178,189.816913 C361.486185,192.224986 368.186286,193.68703 375.518483,194.203046 L376.287615,194.247502 L376.289568,210.825761 L386.926969,210.825761 L386.924515,194.255289 L387.423422,194.225527 C394.953301,193.72255 401.856962,192.213621 408.134407,189.698738 C415.981213,186.555135 422.198108,181.968718 426.78509,175.939487 C431.372072,169.910257 433.665564,162.550209 433.665564,153.859343 L433.665564,153.729582 C433.665564,143.128353 430.240297,134.855347 423.389763,128.910564 C416.539229,122.96578 406.402803,118.519165 392.980485,115.570718 L386.924515,114.242281 L386.924515,75.9120426 L387.241151,75.9467328 C390.036206,76.3090737 392.602315,76.9431701 394.939477,77.8490222 C398.834747,79.3587757 401.973263,81.5551787 404.355025,84.4382311 C406.736787,87.3212835 408.202288,90.8333141 408.751528,94.9743228 L408.881611,95.8641093 L431.96519,95.8641093 L431.833558,94.2235654 C431.246119,86.3133223 428.76473,79.4936855 424.38939,73.764655 C420.014051,68.0356246 414.143788,63.6265986 406.778599,60.5375771 C400.886448,58.0663599 394.28235,56.5836296 386.966304,56.0893861 L386.924515,56.0888771 L386.926969,39.4924272 Z M385.299618,139.10483 L386.653744,139.386756 C395.292,141.267528 401.209365,143.541417 404.405839,146.208424 C407.79034,149.032313 409.482591,152.680511 409.482591,157.153018 L409.482591,157.276628 C409.482591,160.67589 408.489858,163.72468 406.504393,166.422998 C404.518928,169.121315 401.390853,171.244015 397.120168,172.791096 C394.16354,173.862152 390.579469,174.562458 386.367955,174.892014 L385.299618,174.965295 L385.299618,139.10483 Z M376.757007,75.3528923 L376.757007,111.09328 L377.238628,111.213357 C369.82278,109.412431 364.610071,107.005581 361.600503,103.992807 C358.590935,100.980033 357.08615,97.3368333 357.08615,93.0632069 L357.08615,92.9345693 C357.08615,89.775802 358.007437,86.8472551 359.85001,84.1489286 C361.692583,81.4506022 364.425184,79.2681022 368.047813,77.6014288 C370.353122,76.5408184 373.008061,75.8176749 376.012631,75.4319984 L376.757007,75.3528923 Z" id="Combined-Shape" fill="#F9F5F1"></path>
                </g>
                <path d="M327,0 C343.568542,-3.04359188e-15 357,13.4314575 357,30 L357,139.800039 L315.895268,120.140141 L316.21573,89.130617 C316.388535,85.5356225 315.374632,82.7090691 313.174021,80.6509569 C310.97341,78.5928446 308.34698,77.5219368 305.294732,77.4382333 L49.8073084,77.4382333 C47.1023597,77.4382333 44.5985072,78.5091412 42.2957509,80.6509569 C39.9929946,82.7927726 38.8838155,86.1578847 38.9682134,90.7462932 L38.9682134,506.209378 C38.7374622,510.191934 39.8466414,513.521542 42.2957509,516.198202 C44.7448604,518.874863 48.3283547,520.178144 53.0462339,520.108044 L303.678208,520.108044 C306.856268,519.678478 309.751492,518.375198 312.363882,516.198202 C314.889191,514.093773 316.173148,511.198521 316.215751,507.512445 L316.21573,473.982153 L357,455.07395 L357,591 C357,607.568542 343.568542,621 327,621 L30,621 C13.4314575,621 2.02906125e-15,607.568542 0,591 L0,30 C1.52365243e-15,13.4314575 13.4314575,3.04359188e-15 30,0 L327,0 Z M178.5,535.344828 C161.41231,535.344828 147.56,549.193123 147.56,566.275862 C147.56,583.358601 161.41231,597.206897 178.5,597.206897 C195.58769,597.206897 209.44,583.358601 209.44,566.275862 C209.44,549.193123 195.58769,535.344828 178.5,535.344828 Z M216.72,26.1724138 L140.28,26.1724138 C136.414007,26.1724138 133.28,29.3064205 133.28,33.1724138 L133.28,33.1724138 L133.28,45.3448276 C133.28,49.2108208 136.414007,52.3448276 140.28,52.3448276 L140.28,52.3448276 L216.72,52.3448276 C220.585993,52.3448276 223.72,49.2108208 223.72,45.3448276 L223.72,45.3448276 L223.72,33.1724138 C223.72,29.3064205 220.585993,26.1724138 216.72,26.1724138 L216.72,26.1724138 Z" id="Combined-Shape" fill="#F9F5F1"></path>
            </g>
        </g>
    </g>
</svg>