<?xml version="1.0" encoding="UTF-8"?>
<svg width="699px" height="954px" viewBox="0 0 699 954" version="1.1" xmlns="http://www.w3.org/2000/svg" xmlns:xlink="http://www.w3.org/1999/xlink">
    <title>TipOut Dark Transparent</title>
    <defs>
        <linearGradient x1="69.701296%" y1="50%" x2="36.0672738%" y2="50%" id="linearGradient-1">
            <stop stop-color="#148E56" offset="0%"></stop>
            <stop stop-color="#4BCD3E" offset="100%"></stop>
        </linearGradient>
    </defs>
    <g id="Slides" stroke="none" stroke-width="1" fill="none" fill-rule="evenodd">
        <g id="Full-Logo-DARK" transform="translate(-552.000000, -62.000000)">
            <g id="TipOut-Dark-Transparent" transform="translate(549.000000, 62.000000)">
                <g id="TIP-OUT" transform="translate(3.176406, 679.234375)" fill-rule="nonzero">
                    <path d="M76.8066406,184.765625 L76.8066406,36.7919922 L105.004883,36.7919922 L105.004883,0 L0,0 L0,36.7919922 L28.7353516,36.7919922 L28.7353516,184.765625 L76.8066406,184.765625 Z M168.291133,184.765625 L168.291133,0 L120.219844,0 L120.219844,184.765625 L168.291133,184.765625 Z M237.217031,184.765625 L237.217031,110.644531 L250.107656,110.644531 C267.653229,110.644531 279.469635,106.705729 285.556875,98.828125 C290.211823,92.9199219 292.539297,82.5358073 292.539297,67.6757812 L292.539297,67.6757812 L292.539297,51.5625 C292.539297,37.2395833 291.644115,27.6163737 289.85375,22.6928711 C288.063385,17.7693685 284.840729,13.3382161 280.185781,9.39941406 C275.530833,5.46061198 270.15974,2.90934245 264.0725,1.74560547 C257.98526,0.58186849 249.122956,0 237.485586,0 L237.485586,0 L189.145742,0 L189.145742,184.765625 L237.217031,184.765625 Z M240.708242,78.6865234 L237.217031,78.6865234 L237.217031,31.6894531 C243.483307,31.6894531 247.556387,32.6293945 249.43627,34.5092773 C251.316152,36.3891602 252.256094,40.5517578 252.256094,46.9970703 L252.256094,46.9970703 L252.256094,61.7675781 C252.256094,68.2128906 251.495189,72.644043 249.973379,75.0610352 C248.451569,77.4780273 245.36319,78.6865234 240.708242,78.6865234 L240.708242,78.6865234 Z" id="TIP" fill="#F9F5F1"></path>
                    <path d="M368.447617,185.302734 C381.159206,185.302734 391.767116,183.378092 400.271348,179.528809 C408.775579,175.679525 414.997096,169.458008 418.935898,160.864258 C421.084336,156.20931 422.427109,150.435384 422.964219,143.54248 C423.501328,136.649577 423.769883,124.788411 423.769883,107.958984 L423.769883,76.5380859 C423.769883,61.4990234 423.456569,49.995931 422.829941,42.0288086 C422.203314,34.0616862 420.905299,27.9296875 418.935898,23.6328125 C414.81806,15.0390625 408.686061,8.99658203 400.539902,5.50537109 C392.393743,2.01416016 381.696315,0.268554688 368.447617,0.268554688 C355.198919,0.268554688 344.456732,2.05891927 336.221055,5.63964844 C327.985378,9.2203776 321.80862,15.218099 317.690781,23.6328125 C315.542344,28.2877604 314.19957,34.0616862 313.662461,40.9545898 C313.125352,47.8474935 312.856797,59.7086589 312.856797,76.5380859 L312.856797,108.832929 C312.868963,123.621612 313.182161,134.922908 313.796738,142.736816 C314.423366,150.703939 315.72138,156.746419 317.690781,160.864258 C321.80862,169.458008 328.119655,175.679525 336.623887,179.528809 C345.128118,183.378092 355.736029,185.302734 368.447617,185.302734 Z M368.179062,157.641602 C365.135443,157.641602 363.166042,156.298828 362.270859,153.613281 C361.375677,150.927734 360.928086,147.167969 360.928086,142.333984 L360.928086,142.333984 L360.928086,47.5341797 C360.928086,39.4775391 361.375677,34.0616862 362.270859,31.2866211 C363.166042,28.511556 365.224961,27.1240234 368.447617,27.1240234 C371.670273,27.1240234 373.684434,28.3772786 374.490098,30.8837891 C375.295762,33.3902995 375.698594,37.508138 375.698594,43.2373047 L375.698594,43.2373047 L375.698594,139.111328 C375.698594,151.464844 373.192083,157.641602 368.179062,157.641602 Z M504.780742,185.302734 C515.343893,185.302734 524.161439,184.228516 531.233379,182.080078 C538.305319,179.931641 543.900208,176.171875 548.018047,170.800781 C552.135885,165.429688 554.821432,159.834798 556.074687,154.016113 C557.327943,148.197428 557.95457,140.812174 557.95457,131.860352 L557.95457,131.860352 L557.95457,0 L509.883281,0 L509.883281,140.185547 C509.883281,147.526042 509.301413,152.270508 508.137676,154.418945 C506.973939,156.567383 505.228333,157.641602 502.900859,157.641602 C499.678203,157.641602 497.708802,156.522624 496.992656,154.284668 C496.27651,152.046712 495.918437,148.152669 495.918437,142.602539 L495.918437,142.602539 L495.918437,0 L447.847148,0 L447.847148,123.535156 C447.847148,135.172526 448.29474,144.169108 449.189922,150.524902 C450.085104,156.880697 452.144023,162.654622 455.36668,167.84668 C459.484518,173.933919 465.750794,178.365072 474.165508,181.140137 C482.580221,183.915202 492.785299,185.302734 504.780742,185.302734 Z M651.5875,184.765625 L651.5875,36.7919922 L679.785742,36.7919922 L679.785742,0 L574.780859,0 L574.780859,36.7919922 L603.516211,36.7919922 L603.516211,184.765625 L651.5875,184.765625 Z" id="OUT" fill="#4BCD3E"></path>
                </g>
                <g id="Tip-out-Logo-DARK" transform="translate(142.000000, 0.000000)">
                    <g id="Fast-Coin" transform="translate(64.000000, 170.000000)">
                        <path d="M129.175264,0 L358.525145,0 C287.405208,19.668623 251.84524,62.5019564 251.84524,128.5 C251.84524,194.498044 290.900594,237.331377 369.011304,257 L175.787864,257 C165.445167,256.082317 160.273819,250.410095 160.273819,239.983334 C160.273819,229.556572 165.445167,224.241032 175.787864,224.036714 L235.275282,224.036714 C243.872611,222.390572 248.171275,214.98174 248.171275,201.810217 C248.171275,188.638694 243.872611,181.456407 235.275282,180.263355 L72.4422599,180.263355 C61.7803173,178.504 56.449346,173.190451 56.449346,164.322705 C56.449346,155.45496 61.7803173,150.494146 72.4422599,149.440262 L175.787864,149.440262 C183.480478,145.792531 187.326786,138.812443 187.326786,128.5 C187.326786,118.187557 183.480478,111.170735 175.787864,107.449536 L15.7459905,107.449536 C5.2486635,106.089788 0,100.41023 0,90.4108603 C0,80.4114911 5.2486635,74.8779413 15.7459905,73.8102112 L235.275282,73.8102112 C244.5059,70.441858 249.121209,63.8234007 249.121209,53.9548392 C249.121209,44.0862777 244.5059,37.6092798 235.275282,34.5238454 L129.175264,34.5238454 C120.465719,31.389625 116.110946,25.3576371 116.110946,16.4278818 C116.110946,7.49812645 120.465719,2.02216586 129.175264,0 Z" id="Path-9" fill="url(#linearGradient-1)"></path>
                        <path d="M380.078295,13.3165013 C443.872891,13.3165013 495.58863,64.9882303 495.58863,128.728538 C495.58863,192.468846 443.872891,244.140575 380.078295,244.140575 C316.283698,244.140575 264.56796,192.468846 264.56796,128.728538 C264.56796,64.9882303 316.283698,13.3165013 380.078295,13.3165013 Z M386.926969,39.4924272 L376.289568,39.4924272 L376.287615,56.0655145 L375.662071,56.0987783 C368.258477,56.6180676 361.553616,58.1759355 355.547487,60.7723819 C348.039827,64.0179399 342.154851,68.5842748 337.892561,74.4713865 C333.63027,80.3584982 331.499125,87.2937352 331.499125,95.2770973 L331.499125,95.4068579 C331.499125,105.600268 334.810053,113.758704 341.431908,119.882166 C348.053764,126.005627 357.824976,130.498328 370.745545,133.360268 L376.287615,134.583317 L376.287615,174.467168 L376.139009,174.45179 C372.313828,174.075782 369.007144,173.323766 366.218958,172.195742 C362.036679,170.503705 358.818151,168.186811 356.563375,165.245057 C354.308599,162.303303 352.838969,158.994667 352.154483,155.319149 L351.956261,154.226998 L328.872682,154.226998 L328.971793,155.642005 C329.56646,163.74277 332.192128,170.697574 336.848797,176.506417 C341.505467,182.315261 347.695261,186.752093 355.418178,189.816913 C361.486185,192.224986 368.186286,193.68703 375.518483,194.203046 L376.287615,194.247502 L376.289568,210.825761 L386.926969,210.825761 L386.924515,194.255289 L387.423422,194.225527 C394.953301,193.72255 401.856962,192.213621 408.134407,189.698738 C415.981213,186.555135 422.198108,181.968718 426.78509,175.939487 C431.372072,169.910257 433.665564,162.550209 433.665564,153.859343 L433.665564,153.729582 C433.665564,143.128353 430.240297,134.855347 423.389763,128.910564 C416.539229,122.96578 406.402803,118.519165 392.980485,115.570718 L386.924515,114.242281 L386.924515,75.9120426 L387.241151,75.9467328 C390.036206,76.3090737 392.602315,76.9431701 394.939477,77.8490222 C398.834747,79.3587757 401.973263,81.5551787 404.355025,84.4382311 C406.736787,87.3212835 408.202288,90.8333141 408.751528,94.9743228 L408.881611,95.8641093 L431.96519,95.8641093 L431.833558,94.2235654 C431.246119,86.3133223 428.76473,79.4936855 424.38939,73.764655 C420.014051,68.0356246 414.143788,63.6265986 406.778599,60.5375771 C400.886448,58.0663599 394.28235,56.5836296 386.966304,56.0893861 L386.924515,56.0888771 L386.926969,39.4924272 Z M385.299618,139.10483 L386.653744,139.386756 C395.292,141.267528 401.209365,143.541417 404.405839,146.208424 C407.79034,149.032313 409.482591,152.680511 409.482591,157.153018 L409.482591,157.276628 C409.482591,160.67589 408.489858,163.72468 406.504393,166.422998 C404.518928,169.121315 401.390853,171.244015 397.120168,172.791096 C394.16354,173.862152 390.579469,174.562458 386.367955,174.892014 L385.299618,174.965295 L385.299618,139.10483 Z M376.757007,75.3528923 L376.757007,111.09328 L377.238628,111.213357 C369.82278,109.412431 364.610071,107.005581 361.600503,103.992807 C358.590935,100.980033 357.08615,97.3368333 357.08615,93.0632069 L357.08615,92.9345693 C357.08615,89.775802 358.007437,86.8472551 359.85001,84.1489286 C361.692583,81.4506022 364.425184,79.2681022 368.047813,77.6014288 C370.353122,76.5408184 373.008061,75.8176749 376.012631,75.4319984 L376.757007,75.3528923 Z" id="Combined-Shape" fill="#F9F5F1"></path>
                    </g>
                    <path d="M327,0 C343.568542,-3.04359188e-15 357,13.4314575 357,30 L357,139.800039 L315.895268,120.140141 L316.21573,89.130617 C316.388535,85.5356225 315.374632,82.7090691 313.174021,80.6509569 C310.97341,78.5928446 308.34698,77.5219368 305.294732,77.4382333 L49.8073084,77.4382333 C47.1023597,77.4382333 44.5985072,78.5091412 42.2957509,80.6509569 C39.9929946,82.7927726 38.8838155,86.1578847 38.9682134,90.7462932 L38.9682134,506.209378 C38.7374622,510.191934 39.8466414,513.521542 42.2957509,516.198202 C44.7448604,518.874863 48.3283547,520.178144 53.0462339,520.108044 L303.678208,520.108044 C306.856268,519.678478 309.751492,518.375198 312.363882,516.198202 C314.889191,514.093773 316.173148,511.198521 316.215751,507.512445 L316.21573,473.982153 L357,455.07395 L357,591 C357,607.568542 343.568542,621 327,621 L30,621 C13.4314575,621 2.02906125e-15,607.568542 0,591 L0,30 C1.52365243e-15,13.4314575 13.4314575,3.04359188e-15 30,0 L327,0 Z M178.5,535.344828 C161.41231,535.344828 147.56,549.193123 147.56,566.275862 C147.56,583.358601 161.41231,597.206897 178.5,597.206897 C195.58769,597.206897 209.44,583.358601 209.44,566.275862 C209.44,549.193123 195.58769,535.344828 178.5,535.344828 Z M216.72,26.1724138 L140.28,26.1724138 C136.414007,26.1724138 133.28,29.3064205 133.28,33.1724138 L133.28,33.1724138 L133.28,45.3448276 C133.28,49.2108208 136.414007,52.3448276 140.28,52.3448276 L140.28,52.3448276 L216.72,52.3448276 C220.585993,52.3448276 223.72,49.2108208 223.72,45.3448276 L223.72,45.3448276 L223.72,33.1724138 C223.72,29.3064205 220.585993,26.1724138 216.72,26.1724138 L216.72,26.1724138 Z" id="Combined-Shape" fill="#F9F5F1"></path>
                </g>
                <text id="by" font-family="TitilliumWeb-Light, Titillium Web" font-size="48" font-weight="300" line-spacing="36" fill="#FFFFFF">
                    <tspan x="449.988" y="945.400146">by</tspan>
                </text>
                <g id="FIS-Logo" transform="translate(526.000000, 890.000000)" fill="#FFFFFF">
                    <g id="Circles" transform="translate(9.000000, 0.000000)">
                        <ellipse id="Oval" cx="60.3423567" cy="4.5" rx="4.65764331" ry="4.5"></ellipse>
                        <ellipse id="Oval" opacity="0.801804315" cx="46.2659236" cy="4.5" rx="4.65764331" ry="4.5"></ellipse>
                        <ellipse id="Oval" opacity="0.601795015" cx="32.6035032" cy="4.5" rx="4.65764331" ry="4.5"></ellipse>
                        <ellipse id="Oval" opacity="0.397414435" cx="18.5270701" cy="4.5" rx="4.65764331" ry="4.5"></ellipse>
                        <ellipse id="Oval" opacity="0.200799851" cx="4.65764331" cy="4.5" rx="4.65764331" ry="4.5"></ellipse>
                    </g>
                    <g id="I" transform="translate(65.000000, 18.000000)">
                        <rect id="Rectangle" x="0" y="0" width="7" height="40" rx="3.5"></rect>
                    </g>
                    <g id="F" transform="translate(0.000000, 18.000000)">
                        <path d="M27.5030838,1.7923045 C29.3157107,1.7923045 30.7851351,3.26172891 30.7851351,5.07435578 L30.7851351,34.3370249 C30.7851351,36.1496517 29.3157107,37.6190762 27.5030838,37.6190762 C25.6904569,37.6190762 24.2210325,36.1496517 24.2210325,34.3370249 L24.2210325,5.07435578 C24.2210325,3.26172891 25.6904569,1.7923045 27.5030838,1.7923045 Z" id="Rectangle" transform="translate(27.503084, 19.705690) rotate(90.000000) translate(-27.503084, -19.705690) "></path>
                        <path d="M6.10256653,-3.78690753 C6.56170324,-5.19412036 7.57546321,-5.89772678 9.14384644,-5.89772678 C10.7122297,-5.89772678 11.8181375,-5.19412036 12.4615699,-3.78690753 L12.4615699,27.4265472 C12.4615699,30.9353827 13.6295106,33.7835959 15.965392,35.9711867 C18.3012734,38.1587776 20.9461839,39.3394075 23.9001237,39.5130766 L43.0334242,39.5130766 C44.8912569,39.8448206 45.8201732,40.9372165 45.8201732,42.7902645 C45.8201732,44.6433124 44.8912569,45.6739312 43.0334242,45.8821209 L23.9001237,45.8821209 C19.2229781,45.8821209 15.0957558,44.3436232 11.5184566,41.266628 C7.94115747,38.1896328 6.13586077,33.5762726 6.10256653,27.4265472 L6.10256653,-3.78690753 Z" id="Rectangle" transform="translate(25.961370, 19.992197) rotate(90.000000) translate(-25.961370, -19.992197) "></path>
                    </g>
                    <g id="S" transform="translate(85.000000, 18.000000)">
                        <path d="M5.01741522,0.21147583 C5.01741522,-0.391134688 5.01741522,-3.43495297 8.1969024,-3.43495297 C11.3763896,-3.43495297 11.3763896,-0.391134688 11.3763896,0.21147583 C11.3763896,0.806047572 11.3763896,28.6445297 11.3763896,31.8598419 C11.3763896,32.5261671 11.4789537,38.2978103 16.5045947,38.2978103 C21.5302357,38.2978103 21.4276716,32.5261671 21.4276716,31.8598419 C21.4276716,30.6513458 21.4276716,9.33796846 21.4276716,8.39117921 C21.4889697,6.62006799 21.4276716,-5.01741522 32.952912,-5.01741522 C44.4781524,-5.01741522 44.8374048,6.62006799 44.8374048,8.39117921 C44.8374048,9.06658862 44.8374048,18.9941591 44.8374048,38.1738908 C44.8506067,38.3962943 44.8459733,38.6186737 44.8367096,38.8408842 C44.7172279,41.7069165 43.5656241,43.1399327 41.3818984,43.1399327 C39.1938642,43.1399327 38.0329734,41.7012563 37.8992261,38.8239036 L37.8992261,38.8239036 C37.8992261,19.3882588 37.8992261,9.24401733 37.8992261,8.39117921 C37.8367261,6.62006799 37.775428,1.38692362 32.9148511,1.38692362 C28.0542742,1.38692362 28.0530723,6.62006799 28.0542742,8.39117921 C28.0542742,9.61595134 28.0542742,30.9293287 28.0542742,31.8598419 C28.0542742,33.6772009 28.1235851,44.8374048 16.5993463,44.8374048 C5.07510753,44.8374048 5.07510753,33.4144023 5.01741522,31.8598419 C5.01741522,30.5013903 5.01741522,0.806047572 5.01741522,0.21147583 Z" id="Rectangle" transform="translate(24.927410, 19.909995) rotate(90.000000) translate(-24.927410, -19.909995) "></path>
                    </g>
                </g>
            </g>
        </g>
    </g>
</svg>